HIERARCHY
ROOT Hips
{
	OFFSET 0.000000 0.000000 0.000000
	CHANNELS 6 Xposition Yposition Zposition Xrotation Yrotation Zrotation
	JOINT LeftUpLeg_virtual
	{
		OFFSET 0.000000 0.000000 0.000000
		CHANNELS 3 Xrotation Yrotation Zrotation
		JOINT LeftUpLeg
		{
			OFFSET 15.427100 -6.655098 0.678600
			CHANNELS 3 Xrotation Yrotation Zrotation
			JOINT LeftLeg
			{
				OFFSET 4.081073 -39.591068 13.024000
				CHANNELS 3 Xrotation Yrotation Zrotation
				JOINT LeftFoot
				{
					OFFSET -4.081074 -37.707932 -15.979700
					CHANNELS 3 Xrotation Yrotation Zrotation
					JOINT LeftToeBase
					{
						OFFSET 5.346399 -15.068900 20.645000
						CHANNELS 3 Xrotation Yrotation Zrotation
						JOINT LeftToe_End
						{
							OFFSET 2.754700 0.931300 11.300900
							CHANNELS 3 Xrotation Yrotation Zrotation
							End Site
							{
								OFFSET 0 0 0
							}
						}
					}
				}
			}
		}
	}
	JOINT RightUpLeg_virtual
	{
		OFFSET 0.000000 0.000000 0.000000
		CHANNELS 3 Xrotation Yrotation Zrotation
		JOINT RightUpLeg
		{
			OFFSET -15.569500 -6.655098 0.678600
			CHANNELS 3 Xrotation Yrotation Zrotation
			JOINT RightLeg
			{
				OFFSET -4.081825 -39.591045 13.023800
				CHANNELS 3 Xrotation Yrotation Zrotation
				JOINT RightFoot
				{
					OFFSET 4.081824 -37.707954 -15.979600
					CHANNELS 3 Xrotation Yrotation Zrotation
					JOINT RightToeBase
					{
						OFFSET -5.346400 -15.068900 20.645000
						CHANNELS 3 Xrotation Yrotation Zrotation
						JOINT RightToe_End
						{
							OFFSET -2.754700 0.931300 11.300900
							CHANNELS 3 Xrotation Yrotation Zrotation
							End Site
							{
								OFFSET 0 0 0
							}
						}
					}
				}
			}
		}
	}
	JOINT Spine_virtual
	{
		OFFSET 0.000000 0.000000 0.000000
		CHANNELS 3 Xrotation Yrotation Zrotation
		JOINT Spine
		{
			OFFSET -0.279200 12.230698 -2.892100
			CHANNELS 3 Xrotation Yrotation Zrotation
			JOINT Spine1
			{
				OFFSET -0.232667 10.192268 -1.242267
				CHANNELS 3 Xrotation Yrotation Zrotation
				JOINT Spine1_split
				{
					OFFSET -0.232667 10.192268 -1.242267
					CHANNELS 3 Xrotation Yrotation Zrotation
					JOINT Spine2
					{
						OFFSET -0.232667 10.192268 -1.242267
						CHANNELS 3 Xrotation Yrotation Zrotation
						JOINT Neck_virtual
						{
							OFFSET 0.000000 0.000000 0.000000
							CHANNELS 3 Xrotation Yrotation Zrotation
							JOINT Neck
							{
								OFFSET -0.418800 17.814194 8.416900
								CHANNELS 3 Xrotation Yrotation Zrotation
								JOINT Head
								{
									OFFSET 0.000000 7.031097 3.806800
									CHANNELS 3 Xrotation Yrotation Zrotation
									JOINT HeadTop_End
									{
										OFFSET 0.000000 24.646606 12.978600
										CHANNELS 3 Xrotation Yrotation Zrotation
										End Site
										{
											OFFSET 0 0 0
										}
									}
								}
							}
						}
						JOINT LeftShoulder_virtual
						{
							OFFSET 0.000000 0.000000 0.000000
							CHANNELS 3 Xrotation Yrotation Zrotation
							JOINT LeftShoulder
							{
								OFFSET 8.476499 7.247704 -3.868750
								CHANNELS 3 Xrotation Yrotation Zrotation
								JOINT LeftShoulder_split
								{
									OFFSET 8.476499 7.247704 -3.868750
									CHANNELS 3 Xrotation Yrotation Zrotation
									JOINT LeftArm
									{
										OFFSET 9.308998 -2.777710 0.208600
										CHANNELS 3 Xrotation Yrotation Zrotation
										JOINT LeftForeArm
										{
											OFFSET 29.972298 0.000000 0.000000
											CHANNELS 3 Xrotation Yrotation Zrotation
											JOINT LeftHand
											{
												OFFSET 26.026505 0.000000 0.000000
												CHANNELS 3 Xrotation Yrotation Zrotation
												End Site
												{
													OFFSET 0 0 0
												}
											}
										}
									}
								}
							}
						}
						JOINT RightShoulder_virtual
						{
							OFFSET 0.000000 0.000000 0.000000
							CHANNELS 3 Xrotation Yrotation Zrotation
							JOINT RightShoulder
							{
								OFFSET -7.570500 7.247704 -3.868750
								CHANNELS 3 Xrotation Yrotation Zrotation
								JOINT RightShoulder_split
								{
									OFFSET -7.570500 7.247704 -3.868750
									CHANNELS 3 Xrotation Yrotation Zrotation
									JOINT RightArm
									{
										OFFSET -9.308998 -2.777710 0.208500
										CHANNELS 3 Xrotation Yrotation Zrotation
										JOINT RightForeArm
										{
											OFFSET -29.972300 0.000000 0.000000
											CHANNELS 3 Xrotation Yrotation Zrotation
											JOINT RightHand
											{
												OFFSET -26.026505 0.000000 0.000000
												CHANNELS 3 Xrotation Yrotation Zrotation
												End Site
												{
													OFFSET 0 0 0
												}
											}
										}
									}
								}
							}
						}
					}
				}
			}
		}
	}
}
MOTION
Frames: 10
Frame Time: 0.03333333
-11.246801 76.148758 -6.302074 0.000000 0.000000 0.000000 0.942062 -24.877456 9.366756 -42.682750 23.724928 27.304170 35.290474 -21.129561 -0.761071 8.325050 0.369553 -3.754571 0.706233 -7.733076 8.786079 0.000000 0.000000 0.000000 -0.469273 -24.794874 8.777569 -14.606815 -6.755624 -33.833800 47.914122 9.411967 -2.769625 -25.949373 -23.605829 32.201203 4.000544 4.538458 -17.485484 0.000000 0.000000 0.000000 -0.046856 -13.035876 9.530639 25.911774 -5.334640 5.245683 17.569270 -8.145687 -5.427331 0.243450 -0.839077 0.450330 0.000000 0.000000 0.000000 9.043661 -5.146112 -4.866476 -48.966630 49.337656 34.534290 -69.486397 -22.848545 -45.327929 0.000000 0.000000 0.000000 5.196742 -8.166239 -6.881010 10.870285 -20.730311 0.196511 8.498610 -5.562147 -3.169108 -28.438270 -29.105591 -12.713478 24.611301 -37.033453 11.324113 0.000000 0.000000 0.000000 4.920992 -8.035811 -3.853768 14.011651 11.197864 19.592973 27.335151 10.270083 -2.640375 -18.607556 -2.405679 41.714725 -29.542409 71.511316 13.452307 0.000000 0.000000 0.000000 
-10.954633 77.025261 -5.865677 0.000000 0.000000 0.000000 -0.565801 -22.430913 7.107603 -44.492918 24.151054 27.576267 35.674129 -20.703878 -0.732959 9.990785 0.088094 -0.770598 -1.261182 -7.694544 8.362927 0.000000 0.000000 0.000000 -1.349290 -22.213420 6.887048 -11.212363 -9.427809 -31.447516 43.883723 8.133526 -3.071014 -25.864482 -23.529730 31.658965 3.003797 4.453492 -16.779908 0.000000 0.000000 0.000000 -1.089645 -10.816241 7.226430 24.646833 -4.582234 4.432718 17.596596 -5.736271 -4.533776 0.311487 -0.737986 0.422108 0.000000 0.000000 0.000000 9.787787 -2.929115 -3.861745 -49.422467 46.228267 34.317036 -72.455897 -23.785763 -46.654611 0.000000 0.000000 0.000000 5.519390 -5.861088 -5.325723 10.098031 -20.950535 2.561734 8.661150 -5.676021 -6.577702 -26.323841 -27.766831 -15.353773 17.630853 -34.133174 8.526504 0.000000 0.000000 0.000000 5.176920 -5.998241 -3.004052 13.349174 8.516757 19.906187 27.781975 10.788036 -1.396145 -19.672150 -4.981195 40.345907 -31.615245 74.900360 16.115809 0.000000 0.000000 0.000000 
-10.619923 77.783104 -5.921200 0.000000 0.000000 0.000000 -1.589647 -19.682723 5.152479 -46.374543 23.918295 28.124820 35.893494 -20.368734 -0.755170 11.486134 -0.304698 1.503425 -2.368097 -7.491124 7.783620 0.000000 0.000000 0.000000 -1.748077 -19.009620 5.266907 -7.974050 -11.200136 -28.959838 39.941461 7.040810 -3.631207 -25.862409 -23.677693 31.186316 2.167789 4.450997 -15.931829 0.000000 0.000000 0.000000 -1.884536 -8.464032 5.117887 23.295388 -3.986406 4.033546 17.761299 -3.641867 -3.517185 0.348386 -0.617577 0.313859 0.000000 0.000000 0.000000 10.529998 -1.007480 -2.759975 -50.521308 43.443213 34.230442 -74.739222 -22.196836 -46.751815 0.000000 0.000000 0.000000 5.863460 -3.860087 -3.804338 9.206718 -19.978037 5.201733 8.429299 -6.587839 -9.367511 -24.481543 -25.263509 -19.684614 12.284301 -33.155972 7.032047 0.000000 0.000000 0.000000 5.420915 -4.243072 -2.056116 12.394521 5.816105 19.555308 24.748856 11.929436 -0.168703 -18.637985 -6.034101 39.126312 -35.929005 76.175379 21.484155 0.000000 0.000000 0.000000 
-10.158317 78.322380 -6.258404 0.000000 0.000000 0.000000 -2.139461 -16.946693 3.544633 -48.159674 23.130979 28.894350 36.281883 -20.137329 -0.826235 12.518837 -0.845887 3.095946 -2.721988 -7.222141 7.363308 0.000000 0.000000 0.000000 -1.892097 -15.527798 3.893833 -5.462114 -12.136964 -26.868579 36.804239 6.380390 -4.347067 -25.564355 -23.783393 31.111611 1.052402 4.539888 -15.100181 0.000000 0.000000 0.000000 -2.257118 -6.119295 3.377143 21.858974 -3.598303 3.926304 17.832311 -1.967798 -2.617086 0.274003 -0.504204 0.250645 0.000000 0.000000 0.000000 10.995367 0.498394 -1.765719 -51.698180 41.557333 33.989688 -75.543163 -18.434993 -45.254798 0.000000 0.000000 0.000000 6.067213 -2.271840 -2.573467 8.146507 -17.914244 7.717766 8.055272 -7.835761 -11.151171 -22.531563 -21.413340 -25.218349 8.937349 -34.108937 6.581315 0.000000 0.000000 0.000000 5.557843 -2.877160 -1.161138 11.221695 3.227467 18.529023 19.230172 13.209098 1.449883 -16.011761 -5.199454 37.986343 -39.508638 74.758852 26.395158 0.000000 0.000000 0.000000 
-9.524252 78.570618 -6.725399 0.000000 0.000000 0.000000 -2.174227 -14.628867 2.331068 -49.837630 21.857223 29.869107 37.290586 -19.964320 -0.961323 12.991311 -1.568609 4.042138 -2.473841 -6.946396 7.146242 0.000000 0.000000 0.000000 -1.895511 -12.461871 2.802071 -4.244822 -12.529584 -25.490076 34.828313 6.165869 -4.997649 -25.065604 -23.646115 31.307364 0.279809 4.593356 -14.418545 0.000000 0.000000 0.000000 -2.346066 -3.896374 2.125048 20.440391 -3.368434 3.946112 17.714212 -0.731315 -2.001344 0.190162 -0.488917 0.157083 0.000000 0.000000 0.000000 10.978610 1.579869 -1.036186 -52.488511 40.873358 33.491518 -74.836088 -13.311242 -42.258708 0.000000 0.000000 0.000000 6.005043 -1.129036 -1.833760 6.908457 -14.987061 10.086572 7.686125 -8.800781 -11.735854 -20.465228 -16.244437 -31.313272 7.252017 -36.420741 6.786163 0.000000 0.000000 0.000000 5.529225 -1.851412 -0.499565 9.932456 0.817861 16.929064 12.095936 13.626746 3.501342 -12.253540 -2.629707 36.568829 -41.185771 71.262103 29.509993 0.000000 0.000000 0.000000 
-8.812952 78.482925 -7.153717 0.000000 0.000000 0.000000 -1.969531 -12.913612 1.445851 -51.190830 20.181017 30.934415 38.978541 -19.833420 -1.086594 12.909131 -2.406215 4.450272 -2.160523 -6.748683 7.228849 0.000000 0.000000 0.000000 -1.918601 -10.216791 1.986412 -4.498907 -12.649121 -24.927960 33.892273 6.397933 -5.407297 -24.640403 -23.026186 31.560993 0.458281 4.549031 -14.002302 0.000000 0.000000 0.000000 -2.176303 -2.183099 1.265669 19.051172 -3.216254 3.849853 17.331171 0.144251 -1.764904 0.030835 -0.660907 0.106212 0.000000 0.000000 0.000000 10.508133 2.317740 -0.654554 -52.735949 41.087867 32.791513 -72.822773 -7.820726 -38.167968 0.000000 0.000000 0.000000 5.671794 -0.335141 -1.622502 5.647967 -11.737141 12.387022 7.736848 -9.177513 -11.268599 -18.177435 -10.481408 -36.899527 6.648846 -39.224687 7.180729 0.000000 0.000000 0.000000 5.299510 -1.134633 -0.138736 8.625132 -1.256241 14.977790 6.535230 13.143776 4.535850 -8.186324 1.112876 34.655458 -41.360433 66.631289 31.112529 0.000000 0.000000 0.000000 
-8.038743 78.141708 -7.512131 0.000000 0.000000 0.000000 -1.648954 -11.951754 0.785452 -51.988955 18.259753 31.855958 41.047084 -19.589013 -1.158971 12.242171 -3.089461 4.575069 -1.804492 -6.634129 7.406727 0.000000 0.000000 0.000000 -2.000920 -9.127225 1.389393 -6.096993 -12.534253 -25.220943 33.953243 7.042605 -5.463222 -24.119485 -21.771348 32.011526 1.310293 4.477098 -13.953581 0.000000 0.000000 0.000000 -1.931501 -1.289271 0.688776 17.719478 -3.034067 3.522001 16.681318 0.782387 -1.897503 -0.052311 -0.858544 0.144883 0.000000 0.000000 0.000000 9.684255 2.848431 -0.651290 -52.417232 41.830589 32.086842 -69.868696 -3.096863 -33.463624 0.000000 0.000000 0.000000 5.129464 0.216550 -1.856500 4.489009 -8.777912 14.664175 8.479909 -8.508789 -9.637560 -15.942305 -4.731764 -41.540357 6.743512 -42.327874 7.625881 0.000000 0.000000 0.000000 4.809573 -0.618367 -0.115165 7.429336 -2.828769 12.995600 3.074622 11.944636 4.628558 -4.478012 5.238586 32.629979 -40.344237 61.570187 31.462338 0.000000 0.000000 0.000000 
-7.266968 77.618523 -7.825016 0.000000 0.000000 0.000000 -1.323796 -11.555399 0.314023 -52.125132 16.139115 32.562900 43.137504 -19.205042 -1.194730 11.124105 -3.456196 4.405128 -1.330928 -6.557927 7.502652 0.000000 0.000000 0.000000 -2.101197 -9.124842 0.975986 -8.700963 -12.061714 -26.173980 34.817992 8.061671 -5.189861 -23.139332 -19.916482 33.031649 2.200055 4.424357 -14.317005 0.000000 0.000000 0.000000 -1.758559 -1.208071 0.281915 16.470970 -2.721724 3.006057 15.807710 1.290521 -2.335665 -0.032385 -1.095916 0.186015 0.000000 0.000000 0.000000 8.620993 3.321948 -0.959678 -51.673793 42.543093 31.462891 -66.270600 0.257483 -28.650164 0.000000 0.000000 0.000000 4.398614 0.666662 -2.407907 3.524835 -6.447845 16.906479 9.791619 -7.806898 -7.178772 -14.141130 0.344119 -45.284779 7.349681 -45.341521 8.178444 0.000000 0.000000 0.000000 4.059854 -0.155704 -0.355926 6.402535 -3.651785 11.318622 1.592933 10.550375 3.728204 -1.788923 9.094909 31.282973 -37.572164 55.860091 29.884065 0.000000 0.000000 0.000000 
-6.513837 77.048065 -8.067684 0.000000 0.000000 0.000000 -1.157911 -11.568604 -0.013453 -51.495183 14.057795 33.003908 44.759988 -18.881664 -1.149775 9.807648 -3.455404 3.812923 -0.804209 -6.501253 7.595938 0.000000 0.000000 0.000000 -2.269261 -9.666880 0.641758 -11.681172 -11.138971 -27.489445 36.219079 9.427694 -4.710028 -21.830328 -17.611390 34.714512 2.928078 4.393186 -15.071268 0.000000 0.000000 0.000000 -1.706149 -1.949323 -0.012952 15.348533 -2.254441 2.345125 14.724882 1.711022 -2.977697 0.017940 -1.315192 0.288181 0.000000 0.000000 0.000000 7.498596 3.802972 -1.427909 -50.737114 42.875570 31.026090 -62.383287 1.844281 -24.152853 0.000000 0.000000 0.000000 3.534987 1.102803 -3.127177 2.889420 -4.972710 18.990981 10.554456 -6.709638 -4.771230 -12.721033 4.450084 -48.486926 8.552089 -47.614690 9.090993 0.000000 0.000000 0.000000 3.071093 0.317978 -0.719050 5.550775 -3.712976 10.033632 1.376698 9.768557 2.338194 -0.527060 12.301713 31.489119 -33.361140 49.322183 26.626128 0.000000 0.000000 0.000000 
-5.761777 76.590446 -8.292336 0.000000 0.000000 0.000000 -1.111577 -11.869299 -0.145865 -50.255668 12.212742 33.145522 45.701328 -18.675919 -1.085932 8.423977 -3.155747 2.971089 0.144618 -6.422811 7.653258 0.000000 0.000000 0.000000 -2.437254 -10.410157 0.408771 -14.534281 -9.825374 -28.878327 37.902554 10.883567 -4.184908 -20.765416 -15.246645 36.542905 3.557205 4.343091 -16.056890 0.000000 0.000000 0.000000 -1.883464 -3.129345 -0.124704 14.450802 -1.614226 1.630382 13.515461 2.043289 -3.707439 0.050362 -1.458248 0.382704 0.000000 0.000000 0.000000 6.435926 4.295732 -1.896143 -49.724324 42.781149 30.863470 -58.722797 2.046436 -20.271983 0.000000 0.000000 0.000000 2.547864 1.532886 -3.871019 2.625913 -4.274936 20.928526 10.287872 -4.986051 -3.481287 -11.764128 7.819764 -51.804895 10.788928 -48.711909 10.907929 0.000000 0.000000 0.000000 1.831897 0.792156 -1.051139 4.851403 -3.423687 9.045325 1.450692 9.099855 0.535318 -0.766940 14.756195 33.862736 -28.765707 42.172993 22.669835 0.000000 0.000000 0.000000 
